<svg width="14" height="15" viewBox="0 0 14 15" fill="none" xmlns="http://www.w3.org/2000/svg">
<path d="M1 4.7C1 3.57989 1 3.01984 1.21799 2.59202C1.40973 2.21569 1.71569 1.90973 2.09202 1.71799C2.51984 1.5 3.0799 1.5 4.2 1.5H9.8C10.9201 1.5 11.4802 1.5 11.908 1.71799C12.2843 1.90973 12.5903 2.21569 12.782 2.59202C13 3.01984 13 3.57989 13 4.7V8.3C13 9.4201 13 9.98016 12.782 10.408C12.5903 10.7843 12.2843 11.0903 11.908 11.282C11.4802 11.5 10.9201 11.5 9.8 11.5H8.1225C7.70646 11.5 7.49845 11.5 7.29948 11.5408C7.12295 11.5771 6.95213 11.637 6.79166 11.719C6.61078 11.8114 6.44834 11.9413 6.12348 12.2012L4.53317 13.4735C4.25578 13.6954 4.11708 13.8063 4.00036 13.8065C3.89885 13.8066 3.80282 13.7604 3.73949 13.6811C3.66667 13.5898 3.66667 13.4122 3.66667 13.057V11.5C3.04669 11.5 2.7367 11.5 2.48236 11.4319C1.79218 11.2469 1.25308 10.7078 1.06815 10.0176C1 9.7633 1 9.45331 1 8.83333V4.7Z" stroke="#172E73" stroke-width="1.5" stroke-linecap="round" stroke-linejoin="round"/>
</svg>
