<svg width="20" height="20" viewBox="0 0 20 20" fill="none" xmlns="http://www.w3.org/2000/svg">
<path d="M13 15L17.4 15C17.9601 15 18.2401 15 18.454 14.891C18.6422 14.7951 18.7951 14.6422 18.891 14.454C19 14.2401 19 13.9601 19 13.4L19 2.6C19 2.03995 19 1.75992 18.891 1.54601C18.7951 1.35785 18.6422 1.20487 18.454 1.10899C18.2401 1 17.9601 1 17.4 1L13 1M13 1L7 1M13 1L13 17.4C13 17.9601 13 18.2401 12.891 18.454C12.7951 18.6422 12.6422 18.7951 12.454 18.891C12.2401 19 11.9601 19 11.4 19L8.6 19C8.03995 19 7.75992 19 7.54601 18.891C7.35785 18.7951 7.20487 18.6422 7.10899 18.454C7 18.2401 7 17.9601 7 17.4L7 1M7 11L2.6 11C2.03995 11 1.75992 11 1.54601 10.891C1.35785 10.7951 1.20487 10.6422 1.10899 10.454C0.999999 10.2401 0.999999 9.96005 0.999999 9.4L0.999999 2.6C0.999999 2.03995 0.999998 1.75992 1.10899 1.54601C1.20487 1.35785 1.35785 1.20487 1.54601 1.109C1.75992 1 2.03995 1 2.6 1L7 1" stroke="#172E73" stroke-width="2" stroke-linecap="round" stroke-linejoin="round"/>
</svg>
