<svg width="31" height="19" viewBox="0 0 31 19" fill="none" xmlns="http://www.w3.org/2000/svg">
<path d="M23.6667 18C23.6667 16.837 23.6667 16.2555 23.5232 15.7824C23.2 14.717 22.3663 13.8834 21.301 13.5602C20.8278 13.4167 20.2463 13.4167 19.0834 13.4167H14.9167C13.7537 13.4167 13.1722 13.4167 12.6991 13.5602C11.6337 13.8834 10.8001 14.717 10.4769 15.7824C10.3334 16.2555 10.3334 16.837 10.3334 18M20.75 6.75C20.75 8.82107 19.0711 10.5 17 10.5C14.929 10.5 13.25 8.82107 13.25 6.75C13.25 4.67893 14.929 3 17 3C19.0711 3 20.75 4.67893 20.75 6.75Z" stroke="#172E73" stroke-width="2" stroke-linecap="round" stroke-linejoin="round"/>
<path d="M30 13C30 12.3022 30 11.9533 29.9139 11.6694C29.72 11.0302 29.2198 10.53 28.5806 10.3361C28.2967 10.25 27.9478 10.25 27.25 10.25H24.75C24.0522 10.25 23.7033 10.25 23.4194 10.3361C22.7802 10.53 22.28 11.0302 22.0861 11.6694C22 11.9533 22 12.3022 22 13M28.25 6.25C28.25 7.49264 27.2426 8.5 26 8.5C24.7574 8.5 23.75 7.49264 23.75 6.25C23.75 5.00736 24.7574 4 26 4C27.2426 4 28.25 5.00736 28.25 6.25Z" stroke="#172E73" stroke-width="2" stroke-linecap="round" stroke-linejoin="round"/>
<path d="M12 14C12 12.9921 12 12.4881 11.8816 12.0781C11.615 11.1547 10.9272 10.4323 10.0483 10.1522C9.65791 10.0278 9.17817 10.0278 8.21878 10.0278H4.78126C3.82181 10.0278 3.34208 10.0278 2.95172 10.1522C2.07281 10.4323 1.38503 11.1547 1.11842 12.0781C1 12.4881 1 12.9921 1 14M9.59372 4.25C9.59372 6.04493 8.20863 7.5 6.5 7.5C4.79137 7.5 3.40625 6.04493 3.40625 4.25C3.40625 2.45507 4.79137 1 6.5 1C8.20863 1 9.59372 2.45507 9.59372 4.25Z" stroke="#172E73" stroke-width="2" stroke-linecap="round" stroke-linejoin="round"/>
</svg>
