<svg width="22" height="23" viewBox="0 0 22 23" fill="none" xmlns="http://www.w3.org/2000/svg">
<path d="M10.5 4.5H10.9344C13.9816 4.5 15.5053 4.5 16.0836 5.04729C16.5836 5.52037 16.8051 6.21728 16.6702 6.89221C16.514 7.67302 15.2701 8.55285 12.7823 10.3125L8.71772 13.1875C6.2299 14.9471 4.98599 15.827 4.82984 16.6078C4.69486 17.2827 4.91642 17.9796 5.41636 18.4527C5.99474 19 7.51836 19 10.5656 19H11.5M7 4.5C7 6.15685 5.65685 7.5 4 7.5C2.34315 7.5 1 6.15685 1 4.5C1 2.84315 2.34315 1.5 4 1.5C5.65685 1.5 7 2.84315 7 4.5ZM21 18.5C21 20.1569 19.6569 21.5 18 21.5C16.3431 21.5 15 20.1569 15 18.5C15 16.8431 16.3431 15.5 18 15.5C19.6569 15.5 21 16.8431 21 18.5Z" stroke="#172E73" stroke-width="2" stroke-linecap="round" stroke-linejoin="round"/>
</svg>
