<svg width="16" height="17" viewBox="0 0 16 17" fill="none" xmlns="http://www.w3.org/2000/svg">
<path d="M14.6667 16C14.6667 14.837 14.6667 14.2555 14.5232 13.7824C14.2 12.717 13.3663 11.8834 12.301 11.5602C11.8278 11.4167 11.2463 11.4167 10.0834 11.4167H5.91671C4.75374 11.4167 4.17225 11.4167 3.69909 11.5602C2.63375 11.8834 1.80007 12.717 1.47691 13.7824C1.33337 14.2555 1.33337 14.837 1.33337 16M11.75 4.75C11.75 6.82107 10.0711 8.5 8.00004 8.5C5.92897 8.5 4.25004 6.82107 4.25004 4.75C4.25004 2.67893 5.92897 1 8.00004 1C10.0711 1 11.75 2.67893 11.75 4.75Z" stroke="#172E73" stroke-width="2" stroke-linecap="round" stroke-linejoin="round"/>
</svg>
