<svg width="16" height="16" viewBox="0 0 16 16" fill="none" xmlns="http://www.w3.org/2000/svg">
<path d="M1.33325 7.99998H14.6666M1.33325 4.66665H4.66659M11.3333 4.66665H14.6666M1.33325 11.3333H4.66659M11.3333 11.3333H14.6666M4.66659 14.6666V1.33331M11.3333 14.6666V1.33331M4.53325 14.6666H11.4666C12.5867 14.6666 13.1467 14.6666 13.5746 14.4487C13.9509 14.2569 14.2569 13.951 14.4486 13.5746C14.6666 13.1468 14.6666 12.5868 14.6666 11.4666V4.53331C14.6666 3.41321 14.6666 2.85316 14.4486 2.42533C14.2569 2.04901 13.9509 1.74305 13.5746 1.5513C13.1467 1.33331 12.5867 1.33331 11.4666 1.33331H4.53325C3.41315 1.33331 2.85309 1.33331 2.42527 1.5513C2.04895 1.74305 1.74299 2.04901 1.55124 2.42533C1.33325 2.85316 1.33325 3.41321 1.33325 4.53331V11.4666C1.33325 12.5868 1.33325 13.1468 1.55124 13.5746C1.74299 13.951 2.04895 14.2569 2.42527 14.4487C2.85309 14.6666 3.41315 14.6666 4.53325 14.6666Z" stroke="#172E73" stroke-width="1.5" stroke-linecap="round" stroke-linejoin="round"/>
</svg>
